# xmcd
#
# Track frame offsets: 
#        150
#        2405
#        18318
#        32504
#        49642
#        65704
#        83408
#        85984
#        102800
#        118842
#        134238
#        136111
#        152861
#        166406
#        182131
#        197168
#        214035
#
# Disc length: 3067 seconds
#
# Revision: 0
# Processed by: cddbd v1.5.2PL0 Copyright (c) Steve Scherf et al.
# Submitted via: ExactAudioCopy v0.95a4
#
DISCID=e00bf911
DTITLE=Corey Smith - The Broken Record
DYEAR=2011
DGENRE=Country
TTITLE0=Intro
TTITLE1=If I Could Do It Again
TTITLE2=Carolina
TTITLE3=I Love Everyone
TTITLE4=No Way (Out With A Smile)
TTITLE5=Heart Attack
TTITLE6=Hey Corey
TTITLE7=Broken Record
TTITLE8=Maybe Next Year
TTITLE9=Backroad
TTITLE10=Roots
TTITLE11=New Day
TTITLE12=Sugar Daddy
TTITLE13=Twenty-One
TTITLE14=Something To Lose
TTITLE15=Down To Earth
TTITLE16=Silly
EXTD=
EXTT0=
EXTT1=
EXTT2=
EXTT3=
EXTT4=
EXTT5=
EXTT6=
EXTT7=
EXTT8=
EXTT9=
EXTT10=
EXTT11=
EXTT12=
EXTT13=
EXTT14=
EXTT15=
EXTT16=
PLAYORDER=
